<svg xmlns="http://www.w3.org/2000/svg" width="1024" height="1024" fill="none">
  <g clip-path="url(#a)">
    <path fill="#CF0" d="M1024 0H0v1024h1024V0Z"/>
    <path fill="#CA4E11" d="M341 256h-42v43h42v-43Zm43 0h-43v43h43v-43Zm43 0h-43v43h43v-43Zm42 0h-42v43h42v-43Zm43 0h-43v43h43v-43Zm43 0h-43v43h43v-43Zm42 0h-42v43h42v-43Zm-298 43h-43v42h43v-42Zm42 0h-42v42h42v-42Zm43 0h-43v42h43v-42Zm43 0h-43v42h43v-42Zm42 0h-42v42h42v-42Zm43 0h-43v42h43v-42Zm43 0h-43v42h43v-42Zm42 0h-42v42h42v-42Zm43 0h-43v42h43v-42Zm-341 85h-43v43h43v-43Zm85 0h-43v43h43v-43Zm85 0h-42v43h42v-43Zm86 0h-43v43h43v-43Zm85 0h-43v43h43v-43Z"/>
    <path fill="#933709" d="M256 341h-43v43h43v-43Zm43 0h-43v43h43v-43Zm42 0h-42v43h42v-43Zm43 0h-43v43h43v-43Zm43 0h-43v43h43v-43Zm42 0h-42v43h42v-43Zm43 0h-43v43h43v-43Zm43 0h-43v43h43v-43Zm42 0h-42v43h42v-43Zm43 0h-43v43h43v-43Zm43 0h-43v43h43v-43Zm-427 43h-43v43h43v-43Zm85 0h-42v43h42v-43Zm86 0h-43v43h43v-43Zm85 0h-43v43h43v-43Zm85 0h-42v43h42v-43Zm86 0h-43v43h43v-43Z"/>
    <path fill="#A66E2C" d="M384 469h-43v43h43v-43Zm43 0h-43v43h43v-43Zm170 0h-42v43h42v-43Zm43 0h-43v43h43v-43Z"/>
    <path fill="#fff" d="M427 512h-43v43h43v-43Zm213 0h-43v43h43v-43Z"/>
    <path fill="#855DCD" d="M341 427h-42v42h42v-42Zm43 0h-43v42h43v-42Zm43 0h-43v42h43v-42Zm42 0h-42v42h42v-42Zm86 0h-43v42h43v-42Zm42 0h-42v42h42v-42Zm43 0h-43v42h43v-42Zm43 0h-43v42h43v-42Zm-427 42h-43v43h43v-43Zm43 0h-43v43h43v-43Zm42 0h-42v43h42v-43Zm128 0h-42v43h42v-43Zm43 0h-43v43h43v-43Zm43 0h-43v43h43v-43Zm128 0h-43v43h43v-43Zm-427 43h-43v43h43v-43Zm85 0h-42v43h42v-43Zm128 0h-42v43h42v-43Zm86 0h-43v43h43v-43Zm128 0h-43v43h43v-43Zm-342 43h-42v42h42v-42Zm43 0h-43v42h43v-42Zm43 0h-43v42h43v-42Zm42 0h-42v42h42v-42Zm86 0h-43v42h43v-42Zm42 0h-42v42h42v-42Zm43 0h-43v42h43v-42Zm43 0h-43v42h43v-42Z"/>
    <path fill="#1F1D2A" d="M683 597h-43v43h43v-43Zm-171 43h-43v43h43v-43Zm43 0h-43v43h43v-43Zm-86 128h-42v43h42v-43Zm43 0h-43v43h43v-43Zm43 0h-43v43h43v-43ZM256 981h-43v43h43v-43Zm128-469h-43v43h43v-43Zm213 0h-42v43h42v-43ZM341 213h-42v43h42v-43Zm43 0h-43v43h43v-43Zm43 0h-43v43h43v-43Zm42 0h-42v43h42v-43Zm43 0h-43v43h43v-43Zm43 0h-43v43h43v-43Zm-256 43h-43v43h43v-43Zm341 0h-43v43h43v-43Zm-384 43h-43v42h43v-42Zm427 0h-43v42h43v-42Zm-470 42h-42v43h42v-43Zm512 0h-42v43h42v-43Zm-512 43h-42v43h42v-43Zm512 0h-42v43h42v-43Zm-469 43h-43v42h43v-42Zm0 128h-43v42h43v-42Zm0 42h-43v43h43v-43Zm0 43h-43v43h43v-43Zm427 0h-43v43h43v-43Zm-427 43h-43v42h43v-42Zm427 0h-43v42h43v-42Zm-427 42h-43v43h43v-43Zm427 0h-43v43h43v-43Zm-427 43h-43v43h43v-43Zm427 0h-43v43h43v-43Zm-427 43h-43v42h43v-42Zm427 0h-43v42h43v-42Zm-427 42h-43v43h43v-43Zm427 0h-43v43h43v-43Zm-427 43h-43v43h43v-43Zm427 0h-43v43h43v-43Zm-427 43h-43v42h43v-42Zm427 0h-43v42h43v-42Zm0 42h-43v43h43v-43Zm-86-768h-42v43h42v-43Z"/>
    <path fill="#DBB180" d="M299 427h-43v42h43v-42Zm213 0h-43v42h43v-42Zm-213 85h-43v43h43v-43Zm213 0h-43v43h43v-43Zm-213 43h-43v42h43v-42Zm213 0h-43v42h43v-42Zm-213 42h-43v43h43v-43Zm42 0h-42v43h42v-43Zm43 0h-43v43h43v-43Zm43 0h-43v43h43v-43Zm42 0h-42v43h42v-43Zm43 0h-43v43h43v-43Zm43 0h-43v43h43v-43Zm42 0h-42v43h42v-43Zm43 0h-43v43h43v-43Zm-341 43h-43v43h43v-43Zm42 0h-42v43h42v-43Zm43 0h-43v43h43v-43Zm43 0h-43v43h43v-43Zm42 0h-42v43h42v-43Zm128 0h-42v43h42v-43Zm43 0h-43v43h43v-43Zm-341 43h-43v42h43v-42Zm42 0h-42v42h42v-42Zm43 0h-43v42h43v-42Zm43 0h-43v42h43v-42Zm42 0h-42v42h42v-42Zm43 0h-43v42h43v-42Zm43 0h-43v42h43v-42Zm42 0h-42v42h42v-42Zm43 0h-43v42h43v-42Zm-341 42h-43v43h43v-43Zm42 0h-42v43h42v-43Zm43 0h-43v43h43v-43Zm43 0h-43v43h43v-43Zm42 0h-42v43h42v-43Zm43 0h-43v43h43v-43Zm43 0h-43v43h43v-43Zm42 0h-42v43h42v-43Zm43 0h-43v43h43v-43Zm-341 43h-43v43h43v-43Zm42 0h-42v43h42v-43Zm43 0h-43v43h43v-43Zm43 0h-43v43h43v-43Zm170 0h-42v43h42v-43Zm43 0h-43v43h43v-43Zm-341 43h-43v42h43v-42Zm42 0h-42v42h42v-42Zm43 0h-43v42h43v-42Zm43 0h-43v42h43v-42Zm42 0h-42v42h42v-42Zm43 0h-43v42h43v-42Zm43 0h-43v42h43v-42Zm42 0h-42v42h42v-42Zm43 0h-43v42h43v-42Zm-341 42h-43v43h43v-43Zm42 0h-42v43h42v-43Zm43 0h-43v43h43v-43Zm43 0h-43v43h43v-43Zm42 0h-42v43h42v-43Zm43 0h-43v43h43v-43Zm43 0h-43v43h43v-43Zm42 0h-42v43h42v-43Zm43 0h-43v43h43v-43Zm-341 43h-43v43h43v-43Zm42 0h-42v43h42v-43Zm43 0h-43v43h43v-43Zm43 0h-43v43h43v-43Zm42 0h-42v43h42v-43Zm43 0h-43v43h43v-43Zm43 0h-43v43h43v-43Zm42 0h-42v43h42v-43Zm43 0h-43v43h43v-43Zm-299 43h-42v42h42v-42Zm43 0h-43v42h43v-42Zm43 0h-43v42h43v-42Zm42 0h-42v42h42v-42Zm43 0h-43v42h43v-42Zm43 0h-43v42h43v-42Zm42 0h-42v42h42v-42Zm43 0h-43v42h43v-42Zm-341 42h-43v43h43v-43Zm42 0h-42v43h42v-43Zm43 0h-43v43h43v-43Zm43 0h-43v43h43v-43Zm42 0h-42v43h42v-43Zm43 0h-43v43h43v-43Zm43 0h-43v43h43v-43Zm42 0h-42v43h42v-43Zm43 0h-43v43h43v-43Zm-341-42h-43v42h43v-42Z"/>
    <path fill="#1F1D2A" d="M853 213h-42v43h42v-43Zm-128 0h-42v43h42v-43Zm43-42h-43v42h43v-42Zm43-43h-43v43h43v-43Zm0-43h-43v43h43V85Zm-43 0h-43v43h43V85Zm-43 0h-42v43h42V85Zm128 0h-42v43h42V85Zm0 43h-42v43h42v-43Zm0 43h-42v42h42v-42Z"/>
  </g>
  <defs>
    <clipPath id="a">
      <path fill="#fff" d="M0 0h1024v1024H0z"/>
    </clipPath>
  </defs>
</svg>
