<svg width="1910" height="1000" viewBox="0 0 1910 1000" fill="none" xmlns="http://www.w3.org/2000/svg">
<rect width="1910" height="1000" fill="#855DCD"/>
<path d="M1253.64 215.244C1245.91 215.244 1238.2 215.244 1230.47 215.244C1230.45 214.342 1230.4 213.44 1230.45 212.522C1230.5 211.62 1231.12 210.936 1232.01 210.718C1232.29 210.656 1232.57 210.609 1232.91 210.547C1232.91 210.002 1232.91 209.458 1232.91 208.913C1232.91 206.969 1233.14 206.642 1234.92 205.973C1234.92 193.731 1234.92 181.489 1234.92 169.2C1234.14 169.2 1233.42 169.2 1232.69 169.2C1232.5 168.578 1232.35 168.018 1232.16 167.442C1231.45 165.078 1230.72 162.698 1230 160.333C1230 160.287 1230 160.224 1230 160.178C1230.31 160.162 1230.62 160.131 1230.93 160.131C1234.32 160.131 1237.7 160.131 1241.09 160.131C1241.37 160.131 1241.65 160.131 1241.99 160.131C1241.99 157.036 1241.99 154.018 1241.99 151C1257.08 151 1272.17 151 1287.24 151C1287.21 151.124 1287.17 151.249 1287.17 151.373C1287.17 154.111 1287.17 156.864 1287.17 159.602C1287.17 159.742 1287.21 159.898 1287.26 160.116C1288.26 160.116 1289.24 160.116 1290.22 160.116C1293.48 160.131 1296.73 160.147 1300 160.162C1300 160.209 1300 160.271 1300 160.318C1299.69 161.298 1299.36 162.278 1299.07 163.258C1298.48 165.233 1297.9 167.209 1297.29 169.216C1296.52 169.216 1295.8 169.216 1295.05 169.216C1295.05 181.52 1295.05 193.762 1295.05 205.989C1296.69 206.44 1297.08 206.969 1297.09 208.664C1297.09 209.287 1297.09 209.893 1297.09 210.531C1297.32 210.562 1297.46 210.593 1297.62 210.624C1298.94 210.842 1299.56 211.542 1299.58 212.896C1299.58 213.673 1299.55 214.451 1299.53 215.229C1291.8 215.229 1284.09 215.229 1276.36 215.229C1276.37 214.731 1276.37 214.249 1276.39 213.751C1276.39 213.331 1276.36 212.911 1276.4 212.507C1276.53 211.371 1277.15 210.873 1278.88 210.516C1278.88 209.753 1278.88 208.991 1278.88 208.213C1278.88 207.404 1279.2 206.689 1279.93 206.378C1280.54 206.129 1280.56 205.74 1280.54 205.227C1280.52 199.3 1280.56 193.373 1280.52 187.431C1280.52 186.404 1280.43 185.362 1280.24 184.351C1278.77 176.122 1271.36 170.631 1262.82 171.378C1254.94 172.078 1248.65 179.093 1248.65 187.213C1248.65 193.171 1248.65 199.129 1248.65 205.087C1248.65 205.398 1248.65 205.693 1248.65 205.989C1250.56 206.238 1251.12 206.876 1251.12 208.742C1251.12 209.333 1251.12 209.924 1251.12 210.5C1253.29 210.967 1253.61 211.371 1253.61 213.58C1253.61 214.156 1253.63 214.7 1253.64 215.244Z" fill="white"/>
<path d="M680 999.5C680 923.561 741.561 862 817.5 862H1092.5C1168.44 862 1230 923.561 1230 999.5V999.5H680V999.5Z" fill="white"/>
<path d="M1230 627.5C1230 703.439 1168.44 765 1092.5 765L817.5 765C741.561 765 680 703.439 680 627.5V627.5L1230 627.5V627.5Z" fill="white"/>
<path d="M1230 627.5L680 627.5V490L1230 490V627.5Z" fill="white"/>
<path d="M680 352.5H817.5V490V490C741.561 490 680 428.439 680 352.5V352.5Z" fill="white"/>
<path d="M817.5 352.5H955V352.5C955 428.439 893.439 490 817.5 490V490V352.5Z" fill="white"/>
<path d="M955 352.5H1092.5V490V490C1016.56 490 955 428.439 955 352.5V352.5Z" fill="white"/>
<path d="M1092.5 352.5H1230V352.5C1230 428.439 1168.44 490 1092.5 490V490V352.5Z" fill="white"/>
<rect x="680" y="215" width="137.5" height="137.5" fill="white"/>
<path d="M817.5 215V215C893.439 215 955 276.561 955 352.5V352.5H817.5V215Z" fill="white"/>
<path d="M955 352.5C955 276.561 1016.56 215 1092.5 215V215V352.5H955V352.5Z" fill="white"/>
<path d="M1092.5 215V215C1168.44 215 1230 276.561 1230 352.5V352.5H1092.5V215Z" fill="white"/>
</svg>
